<svg xmlns="http://www.w3.org/2000/svg" viewBox="-16857 -14079 270 270">
  <defs>
    <style>
      .cls-1 {
        fill: #ffce00;
      }
    </style>
  </defs>
  <g id="Gruppe_1014" data-name="Gruppe 1014" transform="translate(-16857 -14079)">
    <path id="Pfad_952" data-name="Pfad 952" class="cls-1" d="M214.645,236.231s-.153-8.031-8.108-8.031h-24.4s-8.031.076-8.031,8.031v15.144H171.2v37.708h46.428V251.376h-2.983Z" transform="translate(-40.254 -53.656)"/>
    <circle id="Ellipse_17" data-name="Ellipse 17" class="cls-1" cx="14.533" cy="14.533" r="14.533" transform="translate(139.436 143.184)"/>
    <circle id="Ellipse_18" data-name="Ellipse 18" class="cls-1" cx="14.533" cy="14.533" r="14.533" transform="translate(194.584 143.184)"/>
    <path id="Pfad_953" data-name="Pfad 953" class="cls-1" d="M289.628,251.376h-2.907V236.231s-.153-8.031-8.184-8.031h-24.4s-8.031.076-8.031,8.031v15.144H243.2v37.708h46.428Z" transform="translate(-57.183 -53.656)"/>
    <circle id="Ellipse_19" data-name="Ellipse 19" class="cls-1" cx="18.739" cy="18.739" r="18.739" transform="translate(54.765 78.629)"/>
    <path id="Pfad_954" data-name="Pfad 954" class="cls-1" d="M157.321,143.17,169.1,131.7h74.5V65H133.3v66.773h31.513l-9.255,9.1a7.156,7.156,0,0,0-9.561.382l-23.482,21.11-15.986-23.023a8.961,8.961,0,0,0-7.878-4.742h-35.8a19.061,19.061,0,0,0-5.431.918c-3.059.994-8.337,3.442-21.34,33.042a8.485,8.485,0,0,0-.688,6.119,8.089,8.089,0,0,0,4.283,4.436L52,183.938v24.017s0,6.5,5.813,7.955v34.878H98.425V215.833c2.907-.688,5.813-2.6,5.813-7.878V161.986l11.014,15.6a7.232,7.232,0,0,0,5.125,3.059c.306,0,.535.076.841.076a7.405,7.405,0,0,0,4.819-1.836l29.6-26.771A8.015,8.015,0,0,0,157.321,143.17Zm-21.11-14.3V67.907H240.692v60.96H172.618l48.187-43.674a1.194,1.194,0,0,0,.076-1.836c-.535-.612-1.453-.994-2.065-.459L168.258,128.79H136.21ZM81.675,201.912,60.335,187.38l.076-.153L76.627,193.5a7.77,7.77,0,0,0,2.6.459,7.153,7.153,0,0,0,6.731-4.666,7.256,7.256,0,0,0-4.13-9.408l-13.538-5.278,12.161-17.822,21.263,14.456Z" transform="translate(-8.247 -15.283)"/>
    <path id="Pfad_955" data-name="Pfad 955" class="cls-1" d="M0,0V270H61.343V251.567H18.433V18.433H251.567V251.567H208.657V270H270V0Z"/>
  </g>
</svg>
