<svg xmlns="http://www.w3.org/2000/svg" viewBox="-17758 -14079 270 270">
  <defs>
    <style>
      .cls-7 {
        fill: #e63e4b !important;
      }
    </style>
  </defs>
  <g id="Gruppe_1016" data-name="Gruppe 1016" transform="translate(-17758 -14079)">
    <path id="Pfad_956" data-name="Pfad 956" class="cls-7" d="M0,0V270H60.654V251.8H18.2V18.2H251.8V251.8h-45.51V270H270V0Z"/>
    <path id="Pfad_957" data-name="Pfad 957" class="cls-7" d="M185.013,204.02c-5.048-28.912-20.881-39.62-27.229-69.68-6.578-30.977,1.989-58.819,9.561-76.64,0,0-43.445,38.856-43.445,86.89,0,33.5,30.748,52.853,39.314,82.989,9.637,33.96,5.431,55.683,5.431,55.683C188.073,247.312,188,221.23,185.013,204.02Z" transform="translate(-29.132 -13.567)"/>
    <path id="Pfad_958" data-name="Pfad 958" class="cls-7" d="M245.842,199.06c-11.932-31.666-38.014-35.8-45.433-69.68a73.522,73.522,0,0,1-1.683-15.68,39.66,39.66,0,0,0-7.343,12.62c-9.867,28.071,19.428,52.623,27.229,84.824,4.589,18.739,3.442,46.122-21.187,84.824a77.393,77.393,0,0,0,24.246-12.085c5.2-3.824,17.439-14,24.246-30.289C256.4,228.354,247.524,203.5,245.842,199.06Z" transform="translate(-44.527 -26.734)"/>
    <path id="Pfad_959" data-name="Pfad 959" class="cls-7" d="M137.713,257.829s-2.065-5.278-4.513-10.326c-8.414-17.21-21.263-27-27.229-42.374-2.295-5.89-4.513-14.839-3.059-27.229A108.935,108.935,0,0,0,87,216.6c-2.6,13.156-7.419,37.938,6.884,61.19,16.368,26.618,46.045,32.354,51.476,33.348,0,0,.994-20.346-2.83-38.167A101.89,101.89,0,0,0,137.713,257.829Z" transform="translate(-19.77 -41.829)"/>
  </g>
</svg>
