<?xml version="1.0" encoding="UTF-8" standalone="no"?>
<svg
   xmlns:dc="http://purl.org/dc/elements/1.1/"
   xmlns:cc="http://creativecommons.org/ns#"
   xmlns:rdf="http://www.w3.org/1999/02/22-rdf-syntax-ns#"
   xmlns:svg="http://www.w3.org/2000/svg"
   xmlns="http://www.w3.org/2000/svg"
   xmlns:sodipodi="http://sodipodi.sourceforge.net/DTD/sodipodi-0.dtd"
   xmlns:inkscape="http://www.inkscape.org/namespaces/inkscape"
   viewBox="-17458 -14079 270 270"
   id="svg2"
   version="1.1"
   inkscape:version="0.91 r13725"
   sodipodi:docname="dienste_Rauchschutz_hover_blue.svg">
  <metadata
     id="metadata13">
    <rdf:RDF>
      <cc:Work
         rdf:about="">
        <dc:format>image/svg+xml</dc:format>
        <dc:type
           rdf:resource="http://purl.org/dc/dcmitype/StillImage" />
        <dc:title></dc:title>
      </cc:Work>
    </rdf:RDF>
  </metadata>
  <sodipodi:namedview
     pagecolor="#ffffff"
     bordercolor="#666666"
     borderopacity="1"
     objecttolerance="10"
     gridtolerance="10"
     guidetolerance="10"
     inkscape:pageopacity="0"
     inkscape:pageshadow="2"
     inkscape:window-width="2560"
     inkscape:window-height="1521"
     id="namedview11"
     showgrid="false"
     inkscape:zoom="0.87407407"
     inkscape:cx="137.28814"
     inkscape:cy="135"
     inkscape:window-x="1920"
     inkscape:window-y="25"
     inkscape:window-maximized="1"
     inkscape:current-layer="svg2" />
  <defs
     id="defs4">
    <style
       id="style6">
      .cls-1 {
        fill: #39a6ff;
      }
    </style>
  </defs>
  <g
     id="Gruppe_1011"
     data-name="Gruppe 1011"
     transform="translate(-17458 -14079)">
    <path
       id="Pfad_948"
       data-name="Pfad 948"
       class="cls-1"
       d="M208.657,0V18.433h42.909V251.567H18.433V18.433H61.343V0H0V270H270V0Z"
       style="fill:#39a6ff;fill-opacity:1" />
    <path
       id="Pfad_949"
       data-name="Pfad 949"
       class="cls-1"
       d="M75.565,84.365a47.994,47.994,0,0,0,13.079,19.045c1.147.994,2.295,1.912,3.518,2.83.382.306.841.535,1.224.841a28.273,28.273,0,0,0,2.524,1.606c.535.306,1.071.535,1.53.841.765.459,1.606.841,2.371,1.224a12.2,12.2,0,0,0,1.759.765c.765.306,1.606.688,2.371.994.612.229,1.224.382,1.836.612.765.229,1.606.535,2.371.688.612.153,1.3.306,1.912.459.841.153,1.606.306,2.448.459.688.076,1.3.229,1.989.306h.076a15.849,15.849,0,0,1-7.19,4.589,54.494,54.494,0,0,1-20.193-9.79c-.688.229-1.3.382-1.912.612A33.464,33.464,0,0,0,66.463,128.04a32.953,32.953,0,0,0-.841,25.7A33.827,33.827,0,0,0,79.389,170.49,36.915,36.915,0,0,0,86.2,173.7a22.732,22.732,0,0,1,2.677-2.065h0a24.917,24.917,0,0,1,3.059-1.836h0c1.071-.535,2.218-1.071,3.365-1.53.306-.153.688-.153.994-.306.535-.153,1.071-.306,1.53-.459a12.644,12.644,0,0,1,2.448-.382,12.671,12.671,0,0,1,5.584,4.9H104.4a3.724,3.724,0,0,0-.918.076,7.537,7.537,0,0,0-1.3.153c-.306,0-.535.076-.841.076-.459.076-.918.229-1.377.306-.229.076-.459.076-.688.153a13.8,13.8,0,0,0-2.142.688,24.106,24.106,0,0,0-7.5,4.589,17.022,17.022,0,0,0-1.989,2.065.075.075,0,0,1-.076.076h0a22.821,22.821,0,0,0-3.365,5.125c-.459.918-.765,1.912-1.147,2.83-5.278.153-8.031,1.683-8.031,1.683v.076c-6.272,2.6-11.014,9.79-9.79,16.751,2.524,15.221,17.363,14.3,17.363,14.15a11.338,11.338,0,0,1,1.606-2.83c2.065-2.295,5.125-2.524,7.649-2.142a11.582,11.582,0,1,0,16.6,2.907,25.4,25.4,0,0,0,4.666-.994,5.276,5.276,0,0,0,.612-.229h0a23.457,23.457,0,0,0,15.221-22.564,25.823,25.823,0,0,0-.765-5.354,33.39,33.39,0,0,0,10.555-.076,20.605,20.605,0,0,0,4.742-1.224,23.952,23.952,0,0,0,14.3-30.136,1.8,1.8,0,0,1-.153-.612l-.076-.229a23.861,23.861,0,0,0-11.473-12.926,15.945,15.945,0,0,1,6.348-2.907,2.029,2.029,0,0,1,.459.382,30.07,30.07,0,0,1,5.737,5.507,29.5,29.5,0,0,1,4.436,7.878,4.948,4.948,0,0,1,.306.994,39.909,39.909,0,0,0,11.32-2.371,38.641,38.641,0,0,0,22.64-49.717,38.154,38.154,0,0,0-12.008-16.521h-.076c-.918.229-1.836.459-2.754.612-.306.076-.688.076-.994.153-.612.076-1.224.229-1.836.306a5.789,5.789,0,0,1-1.147.076,12.508,12.508,0,0,1-1.683.153,6.58,6.58,0,0,0-1.224.076c-.535,0-1.071.076-1.606.076h-.382a35.426,35.426,0,0,1-4.972-.306h-.229a15.276,15.276,0,0,1-1.989-.382,13.623,13.623,0,0,0,4.972-5.2c.841.076,1.683.076,2.524.076a40.987,40.987,0,0,0,10.1-1.224q2.524-.688,4.589-1.377a41.654,41.654,0,1,0-48.722-62.873c.229.076.459.229.688.306,1.453.765,4.666,3.059,3.595,8.184a49.064,49.064,0,0,0-12.85-5.125A47.806,47.806,0,0,0,75.565,84.365Z"
       transform="translate(-14.91)"
       style="fill:#39a6ff;fill-opacity:1" />
  </g>
</svg>
